<svg width="12" height="15" viewBox="0 0 12 15" fill="none" xmlns="http://www.w3.org/2000/svg">
<path d="M5.69526 0.5C4.94502 0.500308 4.20222 0.648784 3.50951 0.936906C2.81679 1.22503 2.1878 1.64712 1.65864 2.17896C1.12948 2.7108 0.710561 3.34191 0.425937 4.03607C0.141312 4.73023 -0.00341517 5.47376 6.11705e-05 6.224C6.11705e-05 10.1792 4.08006 13.8056 5.33526 14.7656C5.44063 14.8526 5.57301 14.9002 5.70966 14.9002C5.84631 14.9002 5.97869 14.8526 6.08406 14.7656C7.34166 13.7768 11.3881 10.1792 11.3881 6.224C11.3915 5.47397 11.2469 4.73063 10.9624 4.03662C10.6779 3.34262 10.2592 2.71162 9.73033 2.17981C9.20142 1.648 8.57271 1.22586 7.88028 0.937596C7.18784 0.649333 6.4453 0.500624 5.69526 0.5ZM5.69526 8.5904C5.22059 8.5904 4.75657 8.44964 4.36189 8.18593C3.96721 7.92221 3.6596 7.54738 3.47795 7.10884C3.2963 6.6703 3.24877 6.18774 3.34138 5.72218C3.43398 5.25663 3.66256 4.82899 3.9982 4.49334C4.33385 4.1577 4.76149 3.92912 5.22704 3.83652C5.6926 3.74391 6.17516 3.79144 6.6137 3.97309C7.05224 4.15474 7.42707 4.46235 7.69079 4.85703C7.9545 5.25171 8.09526 5.71573 8.09526 6.1904C8.09526 6.82692 7.8424 7.43737 7.39232 7.88746C6.94223 8.33754 6.33178 8.5904 5.69526 8.5904Z" fill="white"/>
</svg>
