<svg width="16" height="15" viewBox="0 0 16 15" fill="none" xmlns="http://www.w3.org/2000/svg">
<path d="M8.27775 10.6127C8.02125 10.3697 7.722 10.1829 7.39519 10.0665L6.71006 7.39856L14.8697 5.11594L15.7438 8.52244L8.27775 10.6127ZM5.68012 3.38794L11.1201 1.86638L11.9948 5.274L6.55537 6.79556L5.68012 3.38794ZM5.92425 10.0153C5.77237 10.0581 5.63119 10.1188 5.49394 10.1858L3.09544 0.839812H2.19319C2.10263 1.03725 1.91306 1.17619 1.68919 1.17619H0.563062C0.252 1.17619 0 0.912375 0 0.587812C0 0.26325 0.252 0 0.563062 0H1.68919C1.87819 0 2.03681 0.1035 2.13919 0.251438H3.87169V0.280125L3.89756 0.27225L6.37819 9.93769C6.22688 9.95175 6.07556 9.97369 5.92425 10.0153ZM6.06994 10.5834C7.12125 10.2893 8.20181 10.9406 8.48362 12.0392C8.76544 13.1366 8.14163 14.265 7.08975 14.5592C6.03844 14.8523 4.95787 14.2009 4.67606 13.1034C4.39425 12.006 5.01863 10.8776 6.06994 10.5834ZM5.7735 12.8351C5.89388 13.3054 6.35738 13.5844 6.80794 13.4578C7.2585 13.3312 7.52569 12.8481 7.40531 12.3778C7.28494 11.9076 6.82144 11.6286 6.37088 11.754C5.91975 11.8806 5.65256 12.3643 5.7735 12.8351ZM15.6735 10.5216L9.10125 12.3598C9.08944 12.2029 9.0675 12.0443 9.027 11.8862C8.98706 11.7281 8.92912 11.5796 8.86444 11.4367L15.4024 9.60862L15.6735 10.5216Z" fill="white"/>
</svg>
