<svg width="14" height="20" viewBox="0 0 14 20" fill="none" xmlns="http://www.w3.org/2000/svg">
<path fill-rule="evenodd" clip-rule="evenodd" d="M4 5C2.89543 5 2 5.89543 2 7V13C2 14.1046 2.89543 15 4 15H10C11.1046 15 12 14.1046 12 13V7C12 5.89543 11.1046 5 10 5H4ZM0 7C0 4.79086 1.79086 3 4 3H10C12.2091 3 14 4.79086 14 7V13C14 15.2091 12.2091 17 10 17H4C1.79086 17 0 15.2091 0 13V7Z" fill="#2E2E2E"/>
<path fill-rule="evenodd" clip-rule="evenodd" d="M4 15C4.55228 15 5 15.4477 5 16V18H9V16C9 15.4477 9.44772 15 10 15C10.5523 15 11 15.4477 11 16V19C11 19.5523 10.5523 20 10 20H4C3.44772 20 3 19.5523 3 19V16C3 15.4477 3.44772 15 4 15Z" fill="#2E2E2E"/>
<path fill-rule="evenodd" clip-rule="evenodd" d="M3 1C3 0.447715 3.44772 0 4 0H10C10.5523 0 11 0.447715 11 1V4C11 4.55228 10.5523 5 10 5C9.44772 5 9 4.55228 9 4V2H5V4C5 4.55228 4.55228 5 4 5C3.44772 5 3 4.55228 3 4V1Z" fill="#2E2E2E"/>
<path fill-rule="evenodd" clip-rule="evenodd" d="M5.35706 6.5C5.6332 6.5 5.85706 6.72386 5.85706 7V12.5C5.85706 12.7761 5.6332 13 5.35706 13C5.08091 13 4.85706 12.7761 4.85706 12.5V7C4.85706 6.72386 5.08091 6.5 5.35706 6.5Z" fill="#2E2E2E"/>
<path fill-rule="evenodd" clip-rule="evenodd" d="M7.35706 9C7.6332 9 7.85706 9.22386 7.85706 9.5V12.5C7.85706 12.7761 7.6332 13 7.35706 13C7.08091 13 6.85706 12.7761 6.85706 12.5V9.5C6.85706 9.22386 7.08091 9 7.35706 9Z" fill="#2E2E2E"/>
<path fill-rule="evenodd" clip-rule="evenodd" d="M9.35706 8C9.6332 8 9.85706 8.22386 9.85706 8.5V12.5C9.85706 12.7761 9.6332 13 9.35706 13C9.08091 13 8.85706 12.7761 8.85706 12.5V8.5C8.85706 8.22386 9.08091 8 9.35706 8Z" fill="#2E2E2E"/>
</svg>
