<svg width="14" height="20" viewBox="0 0 14 20" fill="none" xmlns="http://www.w3.org/2000/svg">
<path fill-rule="evenodd" clip-rule="evenodd" d="M1.6075 1.25032C0.764594 2.09322 0.764644 3.44979 0.764594 6.16305L0.764594 13.8371C0.764594 16.5504 0.764594 17.907 1.60754 18.7499C2.45041 19.5928 3.80699 19.5928 6.52023 19.5928L7.47949 19.5928C10.1927 19.5928 11.5493 19.5928 12.3922 18.7499C13.2351 17.907 13.2351 16.5504 13.2351 13.8372L13.2351 6.16306C13.2351 3.4498 13.2351 2.09324 12.3922 1.25032C11.5493 0.407432 10.1927 0.407432 7.47948 0.407432L6.52021 0.407432C3.807 0.407432 2.45039 0.407432 1.6075 1.25032ZM9.39767 4.03565C9.81188 4.03565 10.1477 3.69986 10.1477 3.28565C10.1477 2.87143 9.81188 2.53565 9.39767 2.53565L4.60133 2.53564C4.18712 2.53565 3.85133 2.87143 3.85133 3.28564C3.85133 3.69986 4.18712 4.03565 4.60133 4.03564L9.39767 4.03565ZM6.99929 16.7155C7.79401 16.7154 8.43819 16.0712 8.43826 15.2765C8.43826 14.4819 7.79401 13.8376 6.99937 13.8376C6.20465 13.8377 5.56047 14.4819 5.5604 15.2766C5.5604 16.0712 6.20465 16.7155 6.99929 16.7155Z" fill="#4E4E4E"/>
</svg>
