<svg width="16" height="24" viewBox="0 0 16 24" fill="none" xmlns="http://www.w3.org/2000/svg">
<path d="M5.42224 0.75C4.71949 0.75 4.48474 0.90825 4.48474 1.6875V2.39025H2.37499C0.989741 2.39025 0.734741 2.646 0.734741 4.0305V21.609C0.734741 22.9942 0.990491 23.2493 2.37499 23.2493H13.625C15.0102 23.2493 15.2652 22.9935 15.2652 21.609V4.0305C15.2652 2.64525 15.0095 2.39025 13.625 2.39025H11.5152V1.6875C11.5152 0.909 11.2812 0.75 10.5777 0.75H5.42224ZM2.37499 5.67225C2.37499 3.79725 2.14099 4.032 4.01524 4.032C4.95274 4.032 11.2812 4.032 11.984 4.032C13.859 4.032 13.6242 3.798 13.6242 5.67225C13.6242 6.60975 13.6242 19.032 13.6242 19.9695C13.6242 21.8445 13.8582 21.6097 11.984 21.6097C11.0465 21.6097 4.95274 21.6097 4.01524 21.6097C2.14024 21.6097 2.37499 21.8438 2.37499 19.9695C2.37499 19.0312 2.37499 6.60975 2.37499 5.67225ZM3.54649 8.9535H12.4527C12.7115 8.9535 12.9215 9.1635 12.9215 9.42225V12.0007C12.9215 12.2595 12.7115 12.4695 12.4527 12.4695H3.54649C3.28774 12.4695 3.07774 12.2595 3.07774 12.0007V9.42225C3.07774 9.1635 3.28774 8.9535 3.54649 8.9535ZM3.54649 13.1722H12.4527C12.7115 13.1722 12.9215 13.3822 12.9215 13.641V16.2195C12.9215 16.4782 12.7115 16.6882 12.4527 16.6882H3.54649C3.28774 16.6882 3.07774 16.4782 3.07774 16.2195V13.641C3.07774 13.3822 3.28774 13.1722 3.54649 13.1722ZM3.54649 17.391H12.4527C12.7115 17.391 12.9215 17.601 12.9215 17.8597V20.4382C12.9215 20.697 12.7115 20.907 12.4527 20.907H3.54649C3.28774 20.907 3.07774 20.697 3.07774 20.4382V17.8597C3.07774 17.601 3.28774 17.391 3.54649 17.391Z" fill="#4E4E4E"/>
</svg>
