<svg width="22" height="22" viewBox="0 0 22 22" fill="none" xmlns="http://www.w3.org/2000/svg">
<path fill-rule="evenodd" clip-rule="evenodd" d="M6.43526 0.250001H15.5647C16.1346 0.249981 16.6186 0.249971 17.0185 0.291321C17.4443 0.335341 17.8378 0.430941 18.2096 0.660711C18.5814 0.890481 18.8429 1.19971 19.0727 1.56088C19.2885 1.9001 19.5049 2.33297 19.7598 2.8428L19.7763 2.87574C19.786 2.89518 19.7949 2.91504 19.8029 2.93526L21.2065 6.4834C21.3735 6.90559 21.5586 7.4323 21.6127 7.97128C21.6681 8.52258 21.5921 9.1541 21.1601 9.7019C20.8068 10.15 20.3155 10.4863 19.75 10.6463V20.25H21C21.4142 20.25 21.75 20.5858 21.75 21C21.75 21.4142 21.4142 21.75 21 21.75H1C0.58579 21.75 0.25 21.4142 0.25 21C0.25 20.5858 0.58579 20.25 1 20.25H2.25V10.6464C1.68446 10.4863 1.19312 10.15 0.83975 9.7019C0.40779 9.1541 0.33182 8.52257 0.38718 7.97127C0.4413 7.43229 0.62639 6.90559 0.7934 6.4834L2.19701 2.93526C2.20501 2.91504 2.21388 2.89518 2.22361 2.87574L2.2401 2.84275C2.49498 2.33295 2.71139 1.90009 2.92723 1.56088C3.15704 1.19971 3.41853 0.890481 3.79031 0.660711C4.16208 0.430941 4.55561 0.335341 4.98142 0.291321C5.38134 0.249971 5.86529 0.249981 6.43526 0.250001ZM16.9999 9.8875C17.3359 10.2433 17.7658 10.5096 18.25 10.6465V20.25H14.25V17.4678C14.25 17.028 14.25 16.6486 14.2218 16.3374C14.192 16.0082 14.1259 15.6822 13.9486 15.375C13.7511 15.033 13.467 14.7489 13.125 14.5514C12.8178 14.3741 12.4918 14.308 12.1627 14.2782C11.8514 14.25 11.472 14.25 11.0322 14.25H10.9678C10.528 14.25 10.1486 14.25 9.8373 14.2782C9.5082 14.308 9.1822 14.3741 8.875 14.5514C8.53296 14.7489 8.24892 15.033 8.05144 15.375C7.87407 15.6822 7.80802 16.0082 7.77818 16.3374C7.74997 16.6486 7.74998 17.028 7.75 17.4677V20.25H3.75V10.6465C4.23413 10.5095 4.66398 10.2433 4.99992 9.8875C5.5013 10.4186 6.2119 10.75 6.99991 10.75C7.78793 10.75 8.49853 10.4186 8.99992 9.8875C9.5013 10.4186 10.2119 10.75 10.9999 10.75C11.7879 10.75 12.4985 10.4186 12.9999 9.8875C13.5013 10.4186 14.2119 10.75 14.9999 10.75C15.7879 10.75 16.4985 10.4186 16.9999 9.8875ZM9.25 20.25H12.75V17.5C12.75 17.0189 12.7493 16.7082 12.7279 16.4727C12.7075 16.2476 12.6731 16.1659 12.6495 16.125C12.5837 16.011 12.489 15.9163 12.375 15.8505C12.3341 15.8269 12.2524 15.7925 12.0273 15.7721C11.7918 15.7507 11.4811 15.75 11 15.75C10.5189 15.75 10.2082 15.7507 9.9727 15.7721C9.7476 15.7925 9.6659 15.8269 9.625 15.8505C9.511 15.9163 9.4163 16.011 9.3505 16.125C9.3269 16.1659 9.2925 16.2476 9.2721 16.4727C9.2507 16.7082 9.25 17.0189 9.25 17.5V20.25ZM5.74991 8C5.74991 8.69036 6.30956 9.25 6.99991 9.25C7.69027 9.25 8.24991 8.69036 8.24991 8C8.24991 7.58579 8.5857 7.25 8.99991 7.25C9.4141 7.25 9.7499 7.58579 9.7499 8C9.7499 8.69036 10.3096 9.25 10.9999 9.25C11.6903 9.25 12.2499 8.69036 12.2499 8C12.2499 7.58579 12.5857 7.25 12.9999 7.25C13.4141 7.25 13.7499 7.58579 13.7499 8C13.7499 8.69036 14.3096 9.25 14.9999 9.25C15.6903 9.25 16.2499 8.69036 16.2499 8C16.2499 7.58579 16.5857 7.25 16.9999 7.25C17.4141 7.25 17.7499 7.58579 17.7499 8C17.7499 8.69036 18.3096 9.25 18.9999 9.25C19.3979 9.25 19.7522 9.0649 19.9823 8.77305C20.0962 8.62859 20.1513 8.43094 20.1202 8.12114C20.0879 7.79903 19.969 7.43275 19.8117 7.03518L18.4201 3.51739C18.1524 2.98204 17.9735 2.62749 17.8071 2.36612C17.6472 2.1147 17.5325 2.00562 17.421 1.93669C17.3095 1.86776 17.1606 1.81401 16.8642 1.78336C16.5505 1.75093 16.1446 1.75 15.5278 1.75H6.47214C5.85533 1.75 5.4494 1.75093 5.13569 1.78336C4.83927 1.81401 4.69044 1.86776 4.5789 1.93669C4.46737 2.00562 4.35274 2.1147 4.19276 2.36612C4.02646 2.62749 3.84755 2.98204 3.57983 3.51739L2.18823 7.03518C2.03095 7.43275 1.91202 7.79903 1.87967 8.12115C1.84856 8.43095 1.90366 8.62861 2.01759 8.77307C2.2477 9.0649 2.60196 9.25 2.99991 9.25C3.69027 9.25 4.24991 8.69036 4.24991 8C4.24991 7.58579 4.5857 7.25 4.99991 7.25C5.41413 7.25 5.74991 7.58579 5.74991 8Z" fill="#797979"/>
</svg>
