<svg width="14" height="16" viewBox="0 0 14 16" fill="none" xmlns="http://www.w3.org/2000/svg">
<path d="M10.5502 3.358C9.89089 2.59144 9.54545 1.60104 9.57297 0.592723L7.10913 0.533203C7.10913 0.533203 7.10913 0.638323 7.10913 0.780083V10.6602C7.14353 13.786 2.20497 13.7102 2.59569 10.2551C2.83457 8.88136 4.31073 8.03592 5.62241 8.51384V5.99992C2.76673 5.50264 0.0604879 7.7756 0.0889679 10.6713C0.338568 16.9513 9.34593 16.9521 9.59585 10.6713C9.53297 10.4465 9.56817 6.26152 9.55921 5.90856C10.6795 6.60568 11.983 6.95416 13.3032 6.90952V4.3132C12.0827 4.3132 11.1514 3.98872 10.5502 3.358Z" fill="white"/>
</svg>
